<svg xmlns="http://www.w3.org/2000/svg" width="55" height="55" viewBox="0 0 55 55" fill="none"><path d="M25.5737 11.8441H21.6511C20.6107 11.8441 19.6131 12.2573 18.8774 12.993C18.1418 13.7286 17.7285 14.7263 17.7285 15.7667H29.4963C29.4963 14.7263 29.083 13.7286 28.3474 12.993C27.6117 12.2573 26.6141 11.8441 25.5737 11.8441Z" fill="#24C86F"></path><path d="M40.1855 37.3415C43.7255 33.0702 45.4841 27.5993 45.0961 22.0653C44.708 16.5312 42.2031 11.3594 38.1016 7.62388C34.0001 3.8884 28.6172 1.87643 23.071 2.00588C17.5249 2.13533 12.2418 4.39624 8.31904 8.31902C4.39627 12.2418 2.13533 17.5249 2.00588 23.071C1.87643 28.6172 3.88841 34 7.62389 38.1015C11.3594 42.2031 16.5313 44.708 22.0654 45.0961C27.5994 45.4841 33.0702 43.7255 37.3416 40.1854L40.2246 43.049C40.4063 43.2343 40.6229 43.3817 40.862 43.4827C41.101 43.5837 41.3577 43.6363 41.6172 43.6373C42.1345 43.63 42.628 43.4185 42.9901 43.049C43.3554 42.6815 43.5604 42.1844 43.5604 41.6662C43.5604 41.1481 43.3554 40.651 42.9901 40.2835L40.1855 37.3415ZM23.6124 41.2642C20.1212 41.2642 16.7084 40.2289 13.8055 38.2893C10.9027 36.3497 8.64023 33.5928 7.30421 30.3674C5.96818 27.1419 5.61863 23.5928 6.29973 20.1686C6.98083 16.7445 8.662 13.5993 11.1306 11.1306C13.5993 8.66196 16.7446 6.98079 20.1687 6.29969C23.5928 5.61859 27.142 5.96815 30.3674 7.30418C33.5929 8.6402 36.3497 10.9027 38.2893 13.8055C40.2289 16.7083 41.2642 20.1211 41.2642 23.6123C41.2642 28.2939 39.4044 32.7837 36.0941 36.0941C32.7837 39.4044 28.2939 41.2642 23.6124 41.2642Z" fill="#00213D"></path><path d="M51.2473 42.5777L48.9328 40.283C48.366 39.7131 47.6922 39.2609 46.95 38.9523C46.2078 38.6437 45.412 38.4848 44.6082 38.4848C43.8044 38.4848 43.0085 38.6437 42.2664 38.9523C41.5242 39.2609 40.8503 39.7131 40.2835 40.283C39.1457 41.4229 38.5067 42.9677 38.5067 44.5782C38.5067 46.1888 39.1457 47.7336 40.2835 48.8735L42.5782 51.1879C43.7325 52.3291 45.2895 52.9702 46.9127 52.9727C48.5117 52.9737 50.047 52.3469 51.1884 51.2271C52.3377 50.085 52.9888 48.5348 52.9998 46.9145C53.0109 45.2943 52.3809 43.7354 51.2473 42.5777Z" fill="#24C86F"></path><path d="M29.4963 15.7666H17.7284C14.4788 15.7666 11.8445 18.4009 11.8445 21.6505V27.5345C11.8445 30.7841 14.4788 33.4184 17.7284 33.4184H29.4963C32.7459 33.4184 35.3803 30.7841 35.3803 27.5345V21.6505C35.3803 18.4009 32.7459 15.7666 29.4963 15.7666Z" fill="#00213D"></path></svg>