<svg xmlns="http://www.w3.org/2000/svg" width="55" height="55" viewBox="0 0 55 55" fill="none"><path d="M27.8153 45.3169C29.185 45.3169 30.3057 46.4376 30.3057 47.8074C30.3057 49.1771 29.185 50.2978 27.8153 50.2978H15.6619C11.5278 50.2978 8.19055 46.9606 8.19055 42.8265V28.083C8.19055 26.7133 9.31125 25.5926 10.681 25.5926C12.0507 25.5926 13.1714 26.7133 13.1714 28.083V42.8265C13.1714 44.1962 14.2921 45.3169 15.6619 45.3169H27.8153Z" fill="#00213D"></path><path d="M17.4297 31.2957C18.401 32.267 18.401 33.836 17.4297 34.8072C16.4585 35.7785 14.8895 35.7785 13.9182 34.8072L8.93732 29.8512C7.96604 28.88 7.96604 27.311 8.93732 26.3397C9.90859 25.3684 11.4776 25.3684 12.4488 26.3397L17.4297 31.2957Z" fill="#00213D"></path><path d="M7.46801 34.8322C6.49674 35.8034 4.92776 35.8034 3.95648 34.8322C2.98521 33.8609 2.98521 32.2919 3.95648 31.3206L8.93738 26.3646C9.90865 25.3934 11.4776 25.3934 12.4489 26.3646C13.4202 27.3359 13.4202 28.9049 12.4489 29.8762L7.46801 34.8322Z" fill="#00213D"></path><path d="M28.1141 10.3953C26.7444 10.3953 25.6237 9.27463 25.6237 7.90488C25.6237 6.53514 26.7444 5.41443 28.1141 5.41443H40.5663C44.7005 5.41443 48.0377 8.75163 48.0377 12.8858V27.6292C48.0377 28.999 46.917 30.1197 45.5472 30.1197C44.1775 30.1197 43.0568 28.999 43.0568 27.6292V12.8858C43.0568 11.516 41.9361 10.3953 40.5663 10.3953H28.1141Z" fill="#00213D"></path><path d="M38.798 24.4166C37.8268 23.4453 37.8268 21.8763 38.798 20.905C39.7693 19.9338 41.3383 19.9338 42.3096 20.905L47.2905 25.861C48.2617 26.8323 48.2617 28.4013 47.2905 29.3725C46.3192 30.3438 44.7502 30.3438 43.7789 29.3725L38.798 24.4166Z" fill="#00213D"></path><path d="M48.7601 20.8801C49.7314 19.9088 51.3004 19.9088 52.2717 20.8801C53.2429 21.8514 53.2429 23.4204 52.2717 24.3916L47.2908 29.3476C46.3195 30.3189 44.7505 30.3189 43.7792 29.3476C42.808 28.3763 42.808 26.8074 43.7792 25.8361L48.7601 20.8801Z" fill="#00213D"></path><path d="M18.0475 16.8544C19.474 15.8913 20.5576 14.4871 21.1378 12.8496C21.718 11.2121 21.764 9.42819 21.2691 7.76199C20.7742 6.09579 19.7645 4.63579 18.3897 3.59806C17.0148 2.56033 15.3477 2 13.635 2C11.9224 2 10.2553 2.56033 8.88044 3.59806C7.50555 4.63579 6.49593 6.09579 6.00099 7.76199C5.50605 9.42819 5.55209 11.2121 6.1323 12.8496C6.71251 14.4871 7.79605 15.8913 9.22259 16.8544C6.78905 17.7638 4.68796 19.4089 3.20197 21.5682C3.0859 21.7284 3.01681 21.9187 3.0027 22.1171C2.98859 22.3155 3.03003 22.5139 3.12222 22.6893C3.21333 22.8636 3.34915 23.0096 3.51527 23.1119C3.68139 23.2141 3.87164 23.2688 4.06585 23.2701H23.2042C23.3985 23.2688 23.5887 23.2141 23.7548 23.1119C23.921 23.0096 24.0568 22.8636 24.1479 22.6893C24.2401 22.5139 24.2815 22.3155 24.2674 22.1171C24.2533 21.9187 24.1842 21.7284 24.0681 21.5682C22.5821 19.4089 20.481 17.7638 18.0475 16.8544Z" fill="#2A87F7"></path><path d="M46.7621 46.6325C48.1886 45.6695 49.2722 44.2653 49.8524 42.6277C50.4326 40.9902 50.4786 39.2063 49.9837 37.5401C49.4888 35.8739 48.4791 34.4139 47.1043 33.3762C45.7294 32.3385 44.0623 31.7781 42.3496 31.7781C40.637 31.7781 38.9699 32.3385 37.595 33.3762C36.2202 34.4139 35.2105 35.8739 34.7156 37.5401C34.2206 39.2063 34.2667 40.9902 34.8469 42.6277C35.4271 44.2653 36.5107 45.6695 37.9372 46.6325C35.5036 47.542 33.4026 49.187 31.9166 51.3464C31.8005 51.5065 31.7314 51.6968 31.7173 51.8952C31.7032 52.0936 31.7446 52.292 31.8368 52.4674C31.9279 52.6418 32.0637 52.7878 32.2299 52.89C32.396 52.9923 32.5862 53.0469 32.7805 53.0482H51.9188C52.1131 53.0469 52.3033 52.9923 52.4694 52.89C52.6356 52.7878 52.7714 52.6418 52.8625 52.4674C52.9547 52.292 52.9961 52.0936 52.982 51.8952C52.9679 51.6968 52.8988 51.5065 52.7827 51.3464C51.2967 49.187 49.1956 47.542 46.7621 46.6325Z" fill="#2A87F7"></path></svg>